<svg width="200" height="44" viewBox="0 0 200 44" fill="none" xmlns="http://www.w3.org/2000/svg">
<path d="M52.866 1.11729C52.9422 1.19649 53.0184 1.27555 53.0947 1.35459C53.1123 3.14676 53.112 8.72233 53.1128 10.1911L53.1165 43.7225C45.714 43.6201 38.2323 43.8105 30.8689 43.6793L30.8702 31.1133L41.7041 31.1613C41.6821 29.4603 41.7065 27.7049 41.7112 25.9992L35.5588 26.0056L30.8662 25.9976L30.8371 18.7025L41.7059 18.7073L41.7072 13.5012C33.4647 13.4469 25.222 13.4508 16.9795 13.5125C16.87 9.49265 16.945 5.2316 16.8828 1.16129C20.6456 1.05744 24.7969 1.14082 28.5839 1.14034L52.866 1.11729Z" fill="#1282A2"/>
<path d="M11.4744 1.11834C11.7599 1.52541 11.6433 28.2297 11.643 31.1676L25.5158 31.1388L25.4795 43.716C21.7057 43.66 17.9314 43.652 14.1573 43.6904C9.46687 43.6488 4.7084 43.6984 0.0127557 43.7096L0 1.19098C3.68849 1.07177 7.76169 1.13338 11.4744 1.11834Z" fill="#1282A2"/>
<path d="M64.309 1.12893C66.5024 1.12893 68.6584 1.11069 70.8927 1.12477C73.6895 1.14221 77.5314 0.761216 79.1381 3.61445C79.809 4.80592 79.7978 6.00028 79.4608 7.29672C79.0368 8.92776 77.8092 9.33548 76.4043 10.0507C76.9078 10.4538 78.1708 10.0498 79.4512 11.7683C80.4695 13.1354 80.5106 14.2615 80.278 15.9209C79.1134 20.1138 73.6163 19.6385 70.2108 19.6273L64.3121 19.6017C64.4198 13.5207 64.3289 7.22391 64.309 1.12893Z" fill="#161616"/>
<path d="M69.9897 12.2337C71.6137 12.2167 76.4931 11.8647 74.3805 14.8523C72.9309 15.6085 71.6907 15.4212 70.0718 15.3626L69.9897 12.2337Z" fill="#F4F4F4"/>
<path d="M69.9595 5.50379C71.8177 5.49115 75.2016 5.05223 74.003 7.99267C72.7429 8.65754 71.4454 8.44823 69.9959 8.40006L69.9595 5.50379Z" fill="#F4F4F4"/>
<path d="M163.958 23.9029L169.759 23.8965L169.769 43.6936C168.605 43.692 164.832 44.0584 164.118 43.3512C164.102 42.9063 164.129 42.8071 163.981 42.3942C161.752 43.2823 162.912 43.7656 159.675 43.9256C149.075 42.2774 154.474 24.0437 164.076 30.8027C163.832 29.1114 163.945 25.7287 163.958 23.9029Z" fill="#161616"/>
<path d="M161.555 33.6814C165.095 34.0734 164.976 38.3218 162.117 39.5123C158.829 39.2707 158.514 34.9119 161.555 33.6814Z" fill="#F4F4F4"/>
<path d="M135.215 0.0601717L140.916 0C141.141 6.15883 140.974 13.4186 140.934 19.6289L135.27 19.6193L135.278 18.3144C133.603 19.5457 133.175 19.8241 131.092 19.9057C124.702 19.0449 123.601 11.4761 127.317 7.16389C129.281 4.88463 133.028 4.61677 135.273 6.89586C135.279 4.61724 135.26 2.33847 135.215 0.0601717Z" fill="#161616"/>
<path d="M132.574 9.82056C135.977 9.84984 136.36 13.8686 133.587 15.6251C130.357 15.4873 129.837 11.638 132.574 9.82056Z" fill="#F4F4F4"/>
<path d="M149.453 5.21384C153.601 4.57746 157.483 7.39085 158.129 11.4997C158.775 15.6084 155.939 19.4594 151.792 20.101C147.641 20.7459 143.75 17.9312 143.103 13.8177C142.457 9.70418 145.301 5.85086 149.453 5.21384Z" fill="#161616"/>
<path d="M150.228 9.83887C153.554 9.85839 154.156 14.0775 151.028 15.5177C147.628 15.4892 147.247 11.3273 150.228 9.83887Z" fill="#F4F4F4"/>
<path d="M64.309 25.055C68.8341 25.1366 73.3603 25.1366 77.8854 25.0518C77.9011 26.5991 77.9051 28.1449 77.8979 29.6906L70.0637 29.6794L70.0795 32.8269C72.302 32.7997 74.6267 32.7389 76.8381 32.8205C76.8211 33.8942 76.815 34.9679 76.82 36.0416C76.8384 36.5297 76.8983 36.6769 76.6648 37.0993C75.8647 37.3105 71.1177 37.2145 70.0541 37.2097L70.1228 43.6679C68.1908 43.6519 66.2589 43.6679 64.3276 43.7159L64.309 25.055Z" fill="#161616"/>
<path d="M146.478 29.3771C146.674 29.3595 146.868 29.3467 147.063 29.3387C152.523 29.1307 152.317 34.1792 152.217 38.0292C152.168 39.8934 152.204 41.8311 152.194 43.7017C150.345 43.6553 148.399 43.6841 146.541 43.6825C146.578 41.3047 146.632 38.9333 146.59 36.5538C146.546 34.0464 144.731 32.7567 143.208 35.3521C143.017 36.4418 143.164 42.2232 143.182 43.6953L137.476 43.6601C137.507 39.0837 137.347 34.0656 137.557 29.5548C139.317 29.686 141.365 29.5244 142.948 29.6908C143.358 30.2764 142.857 30.6541 143.19 31.2733C144.566 30.0268 144.663 29.91 146.478 29.3771Z" fill="#161616"/>
<path d="M169.604 5.38518C173.917 5.05555 175.096 7.80653 175.018 11.5547C174.962 14.219 174.986 16.9792 175.01 19.6416C173.137 19.6032 171.179 19.6288 169.299 19.6272C169.288 17.6323 170.078 10.9894 168.064 10.0336C166.933 9.49741 166.229 10.7703 165.92 11.7354C165.862 14.2927 165.917 17.053 165.919 19.6272L160.235 19.6016C160.303 15.0011 160.266 10.3114 160.274 5.70457C161.641 5.68744 164.423 5.57367 165.664 5.78841C165.966 6.20781 165.853 6.5024 165.869 7.13334L166.029 7.25672C167.293 6.12285 167.741 5.84538 169.373 5.4407L169.604 5.38518Z" fill="#161616"/>
<path d="M114.024 29.3883C114.182 29.3771 114.34 29.3674 114.5 29.3594C118.318 29.1818 119.649 31.7725 119.657 35.192C119.663 38.0051 119.646 40.8309 119.684 43.644L114.041 43.6344C114.024 41.0662 114.293 37.9251 113.902 35.4576C113.617 33.6526 111.496 33.227 110.671 35.5728C110.558 38.1795 110.622 41.0069 110.635 43.6328H104.968C105.047 38.9892 104.968 34.2063 104.934 29.5611C106.862 29.6443 108.623 29.6283 110.551 29.6075L110.598 31.4092C111.888 30.1051 112.31 29.8267 114.024 29.3883Z" fill="#161616"/>
<path d="M118.024 5.40826C124.081 4.83412 123.612 10.2932 123.549 14.4734C123.525 16.1822 123.554 17.9426 123.567 19.6544L117.892 19.616C117.914 17.8283 118.597 11.3739 116.84 10.1553C115.797 9.4312 114.941 10.5655 114.516 11.5314C114.377 13.9814 114.49 17.1268 114.515 19.6304L108.876 19.6352L108.88 5.70588C110.03 5.70716 113.707 5.4393 114.395 6.13888C114.4 6.67189 114.393 6.74102 114.506 7.28635L114.766 7.28027C115.517 6.14608 116.516 5.76781 117.808 5.45802L118.024 5.40826Z" fill="#161616"/>
<path d="M97.8115 5.55741C98.317 5.50316 98.8226 5.46667 99.3297 5.44843C106.355 5.22169 106.438 9.08926 106.253 14.7191C106.202 16.2914 106.266 18.0767 106.292 19.6658C105.317 19.6434 101.344 19.7634 100.858 19.4818C100.835 19.2049 100.807 18.9297 100.778 18.6529C99.9563 18.7537 99.2958 19.4946 98.4139 19.789C96.9975 20.2626 95.5073 19.7986 94.2348 19.1889C92.0913 17.5792 91.6396 14.8671 93.4893 12.737C95.0738 10.912 99.8998 12.0766 100.659 11.3364C100.462 8.22422 96.4613 9.64195 94.761 10.5723C94.2028 9.35024 93.6321 8.13397 93.0487 6.92361C94.7332 6.30131 96.0505 5.87728 97.8115 5.55741Z" fill="#161616"/>
<path d="M99.4056 14.0478L100.339 14.0269C101.764 15.0162 100.3 16.5113 99.1471 17.0148C97.0136 16.414 97.1719 14.4325 99.4056 14.0478Z" fill="#F4F4F4"/>
<path d="M127.408 29.4219C129.462 29.2139 131.981 29.3883 133.537 30.8588C135.037 32.275 135.11 34.1184 135.103 36.0241C135.097 38.586 135.042 41.1462 135.145 43.7033C133.559 43.6313 131.654 43.7033 130.042 43.7129C129.535 43.3448 130.106 43.3544 129.699 42.6616C128.661 42.8184 128.089 43.5881 127.017 43.8489C125.597 44.1961 124.045 43.6281 122.813 42.9704C121.907 42.0471 121.264 41.2486 121.278 39.9125C121.337 34.9856 126.159 35.4609 129.52 35.4977L129.649 35.2785C129.249 32.0718 125.424 33.5567 123.636 34.6208C123.147 33.5535 122.393 32.3534 121.784 31.3229C123.879 30.054 124.972 29.7275 127.408 29.4219Z" fill="#161616"/>
<path d="M127.513 38.0258C128.58 37.9602 129.612 37.6866 129.83 39.0515C129.625 39.9812 129.289 40.2932 128.524 40.8612C126.385 41.0117 125.909 39.4531 127.513 38.0258Z" fill="#F4F4F4"/>
<path d="M177.67 29.4009C183.809 29.0153 186.159 32.2108 186.004 38.0034C184.442 37.9729 178.242 37.6241 177.399 38.3138L177.429 38.621C179.174 40.4868 180.884 39.7043 182.764 38.6402L184.437 40.2084L185.451 41.3765C182.699 43.8839 178.92 44.876 175.483 43.095C173.8 42.2181 172.558 40.6916 172.048 38.877C170.703 34.2494 173.02 30.5194 177.67 29.4009Z" fill="#161616"/>
<path d="M178.447 33.0381C179.466 33.0557 181.267 33.6045 180.729 34.8879C180.249 35.2159 179.783 35.0879 179.171 35.0431C178.297 35.0831 177.578 35.3279 177.131 34.5054C177.271 33.8254 177.899 33.4253 178.447 33.0381Z" fill="#F4F4F4"/>
<path d="M83.8985 29.3931C89.9167 28.9451 91.9611 32.5118 91.8857 37.8931C90.262 37.8659 84.6809 37.8275 83.2 38.0531C82.9568 38.7396 84.2467 39.5333 84.8422 39.6837C86.3114 40.0533 87.4505 39.3205 88.6362 38.5972L90.8464 40.7094C91.2923 41.1623 91.2319 40.9222 91.234 41.4055C90.6356 42.3816 88.5777 43.3977 87.4786 43.6473C85.3012 44.1449 82.902 44.0425 80.9633 42.8616C79.3374 41.8503 78.1972 40.2278 77.805 38.3668C76.8607 33.8384 79.3784 30.2636 83.8985 29.3931Z" fill="#161616"/>
<path d="M84.524 33.0093C85.5368 33.0829 87.0435 33.6285 86.5942 34.8766C86.0118 35.2143 85.8992 35.0783 85.0928 35.0655C84.2432 35.1151 83.6432 35.3311 83.0971 34.651C83.2585 33.779 83.7787 33.5245 84.524 33.0093Z" fill="#F4F4F4"/>
<path d="M187.16 29.5626C191.308 29.6058 195.675 29.4826 199.795 29.6218L199.805 33.1805C198.27 34.5631 195.426 37.7954 193.91 39.4067C195.93 39.2339 197.97 39.2851 200 39.2931L199.979 43.7623C195.788 43.5847 191.112 43.6775 186.892 43.7127C186.884 42.551 186.891 41.3909 186.912 40.2308C187.814 38.9491 191.28 35.4207 192.597 33.9982C190.833 33.9374 188.924 33.9918 187.149 34.0094C187.146 32.5277 187.149 31.0443 187.16 29.5626Z" fill="#161616"/>
<path d="M103.304 29.2122C103.476 29.2346 103.354 29.209 103.642 29.3722C103.81 30.5195 103.719 33.1101 103.71 34.3726C97.9504 34.7871 99.3054 39.2307 99.3393 43.6999C97.5628 43.5815 95.7555 43.7015 93.9253 43.5799C93.6162 43.2583 93.7315 43.1191 93.7163 42.5222C93.6974 38.2034 93.7086 33.883 93.7499 29.5642C95.6755 29.593 97.398 29.6138 99.3232 29.529L99.3474 31.8668C100.659 30.1403 101.164 29.6474 103.304 29.2122Z" fill="#161616"/>
<path d="M91.5925 5.34253L92.1329 5.36365C92.5494 6.01092 92.2791 9.55109 92.2419 10.6125C86.5627 10.6693 87.857 15.4203 87.9468 19.6417C86.7873 19.6321 83.0292 19.8529 82.3871 19.3328L82.3601 18.68C82.4318 14.4421 82.347 10.0022 82.3438 5.74145C84.2076 5.70753 86.0717 5.70048 87.9355 5.72049L88.1177 8.09672C89.2473 6.38567 89.6817 6.04532 91.5925 5.34253Z" fill="#161616"/>
<path d="M17.6926 18.72L25.4979 18.6736C25.5092 19.7361 25.6694 25.2294 25.3464 25.9447L24.9316 26.0263L16.9715 26.0071C16.9482 24.743 16.73 19.6321 17.1284 18.8208L17.6926 18.72Z" fill="#1282A2"/>
</svg>
