<svg width="198" height="44" viewBox="0 0 198 44" fill="none" xmlns="http://www.w3.org/2000/svg">
<path d="M52.3372 1.11729C52.4127 1.19649 52.4882 1.27555 52.5636 1.35459C52.5811 3.14676 52.5808 8.72233 52.5816 10.1911L52.5852 43.7225C45.2568 43.6201 37.8499 43.8105 30.5602 43.6793L30.5614 31.1133L41.287 31.1613C41.2652 29.4603 41.2894 27.7049 41.294 25.9992L35.2031 26.0056L30.5574 25.9976L30.5287 18.7025L41.2887 18.7073L41.29 13.5012C33.1299 13.4469 24.9697 13.4508 16.8096 13.5125C16.7012 9.49265 16.7754 5.2316 16.7139 1.16129C20.439 1.05744 24.5489 1.14082 28.298 1.14034L52.3372 1.11729Z" fill="#1282A2"/>
<path d="M11.3597 1.11834C11.6423 1.52541 11.5269 28.2297 11.5266 31.1676L25.2606 31.1388L25.2247 43.716C21.4886 43.66 17.7521 43.652 14.0158 43.6904C9.3722 43.6488 4.66132 43.6984 0.0126282 43.7096L0 1.19098C3.6516 1.07177 7.68407 1.13338 11.3597 1.11834Z" fill="#1282A2"/>
<path d="M63.666 1.12893C65.8375 1.12893 67.9719 1.11069 70.1838 1.12477C72.9527 1.14221 76.7562 0.761216 78.3468 3.61445C79.011 4.80592 78.9999 6.00028 78.6662 7.29672C78.2465 8.92776 77.0312 9.33548 75.6403 10.0507C76.1388 10.4538 77.3892 10.0498 78.6568 11.7683C79.6649 13.1354 79.7055 14.2615 79.4753 15.9209C78.3223 20.1138 72.8802 19.6385 69.5088 19.6273L63.6691 19.6017C63.7757 13.5207 63.6857 7.22391 63.666 1.12893Z" fill="#FEFEFE"/>
<path d="M69.29 12.2337C70.8977 12.2167 75.7284 11.8647 73.6368 14.8523C72.2018 15.6085 70.974 15.4212 69.3713 15.3626L69.29 12.2337Z" fill="#161616"/>
<path d="M69.2598 5.50379C71.0993 5.49115 74.4494 5.05223 73.2628 7.99267C72.0153 8.65754 70.7308 8.44823 69.2957 8.40006L69.2598 5.50379Z" fill="#161616"/>
<path d="M162.318 23.9029L168.062 23.8965L168.071 43.6936C166.918 43.692 163.183 44.0584 162.477 43.3512C162.461 42.9063 162.488 42.8071 162.341 42.3942C160.134 43.2823 161.282 43.7656 158.078 43.9256C147.584 42.2774 152.93 24.0437 162.435 30.8027C162.194 29.1114 162.306 25.7287 162.318 23.9029Z" fill="#FEFEFE"/>
<path d="M159.939 33.6814C163.444 34.0734 163.326 38.3218 160.496 39.5123C157.24 39.2707 156.929 34.9119 159.939 33.6814Z" fill="#161616"/>
<path d="M133.863 0.0601717L139.507 0C139.729 6.15883 139.564 13.4186 139.524 19.6289L133.917 19.6193L133.925 18.3144C132.267 19.5457 131.843 19.8241 129.781 19.9057C123.455 19.0449 122.365 11.4761 126.044 7.16389C127.988 4.88463 131.698 4.61677 133.92 6.89586C133.927 4.61724 133.907 2.33847 133.863 0.0601717Z" fill="#FEFEFE"/>
<path d="M131.249 9.82056C134.618 9.84984 134.997 13.8686 132.251 15.6251C129.053 15.4873 128.539 11.638 131.249 9.82056Z" fill="#161616"/>
<path d="M147.959 5.21384C152.065 4.57746 155.908 7.39085 156.548 11.4997C157.188 15.6084 154.38 19.4594 150.274 20.101C146.165 20.7459 142.313 17.9312 141.672 13.8177C141.032 9.70418 143.848 5.85086 147.959 5.21384Z" fill="#FEFEFE"/>
<path d="M148.726 9.83887C152.019 9.85839 152.615 14.0775 149.518 15.5177C146.152 15.4892 145.775 11.3273 148.726 9.83887Z" fill="#161616"/>
<path d="M63.666 25.055C68.1459 25.1366 72.6268 25.1366 77.1067 25.0518C77.1222 26.5991 77.1262 28.1449 77.119 29.6906L69.3631 29.6794L69.3788 32.8269C71.5791 32.7997 73.8805 32.7389 76.0698 32.8205C76.053 33.8942 76.0469 34.9679 76.0519 36.0416C76.0701 36.5297 76.1294 36.6769 75.8982 37.0993C75.1061 37.3105 70.4066 37.2145 69.3537 37.2097L69.4216 43.6679C67.509 43.6519 65.5964 43.6679 63.6844 43.7159L63.666 25.055Z" fill="#FEFEFE"/>
<path d="M145.013 29.3771C145.207 29.3595 145.399 29.3467 145.592 29.3387C150.998 29.1307 150.794 34.1792 150.694 38.0292C150.646 39.8934 150.682 41.8311 150.672 43.7017C148.841 43.6553 146.915 43.6841 145.076 43.6825C145.113 41.3047 145.165 38.9333 145.124 36.5538C145.081 34.0464 143.283 32.7567 141.776 35.3521C141.587 36.4418 141.732 42.2232 141.75 43.6953L136.101 43.6601C136.131 39.0837 135.973 34.0656 136.181 29.5548C137.924 29.686 139.951 29.5244 141.518 29.6908C141.924 30.2764 141.429 30.6541 141.758 31.2733C143.12 30.0268 143.216 29.91 145.013 29.3771Z" fill="#FEFEFE"/>
<path d="M167.909 5.38518C172.178 5.05555 173.345 7.80653 173.268 11.5547C173.212 14.219 173.236 16.9792 173.26 19.6416C171.405 19.6032 169.468 19.6288 167.606 19.6272C167.595 17.6323 168.377 10.9894 166.383 10.0336C165.264 9.49741 164.567 10.7703 164.261 11.7354C164.204 14.2927 164.258 17.053 164.26 19.6272L158.633 19.6016C158.7 15.0011 158.664 10.3114 158.672 5.70457C160.024 5.68744 162.779 5.57367 164.007 5.78841C164.306 6.20781 164.194 6.5024 164.21 7.13334L164.369 7.25672C165.621 6.12285 166.063 5.84538 167.68 5.4407L167.909 5.38518Z" fill="#FEFEFE"/>
<path d="M112.883 29.3883C113.04 29.3771 113.197 29.3674 113.355 29.3594C117.135 29.1818 118.452 31.7725 118.46 35.192C118.467 38.0051 118.449 40.8309 118.488 43.644L112.901 43.6344C112.883 41.0662 113.15 37.9251 112.764 35.4576C112.481 33.6526 110.381 33.227 109.564 35.5728C109.452 38.1795 109.516 41.0069 109.529 43.6328H103.918C103.997 38.9892 103.918 34.2063 103.885 29.5611C105.794 29.6443 107.537 29.6283 109.446 29.6075L109.492 31.4092C110.77 30.1051 111.187 29.8267 112.883 29.3883Z" fill="#FEFEFE"/>
<path d="M116.844 5.40826C122.84 4.83412 122.376 10.2932 122.314 14.4734C122.29 16.1822 122.319 17.9426 122.331 19.6544L116.713 19.616C116.735 17.8283 117.411 11.3739 115.672 10.1553C114.639 9.4312 113.792 10.5655 113.371 11.5314C113.234 13.9814 113.345 17.1268 113.369 19.6304L107.788 19.6352L107.791 5.70588C108.929 5.70716 112.57 5.4393 113.251 6.13888C113.256 6.67189 113.249 6.74102 113.361 7.28635L113.619 7.28027C114.362 6.14608 115.35 5.76781 116.63 5.45802L116.844 5.40826Z" fill="#FEFEFE"/>
<path d="M96.8333 5.55741C97.3337 5.50316 97.8342 5.46667 98.3363 5.44843C105.292 5.22169 105.373 9.08926 105.191 14.7191C105.14 16.2914 105.204 18.0767 105.229 19.6658C104.263 19.6434 100.33 19.7634 99.8488 19.4818C99.8264 19.2049 99.7993 18.9297 99.7705 18.6529C98.9566 18.7537 98.3027 19.4946 97.4297 19.789C96.0274 20.2626 94.5521 19.7986 93.2923 19.1889C91.1702 17.5792 90.723 14.8671 92.5542 12.737C94.1229 10.912 98.9007 12.0766 99.6522 11.3364C99.4571 8.22422 95.4966 9.64195 93.8132 10.5723C93.2606 9.35024 92.6956 8.13397 92.1181 6.92361C93.7857 6.30131 95.0898 5.87728 96.8333 5.55741Z" fill="#FEFEFE"/>
<path d="M98.4116 14.0478L99.3358 14.0269C100.746 15.0162 99.2974 16.5113 98.1558 17.0148C96.0436 16.414 96.2003 14.4325 98.4116 14.0478Z" fill="#161616"/>
<path d="M126.134 29.4219C128.167 29.2139 130.662 29.3883 132.201 30.8588C133.687 32.275 133.759 34.1184 133.752 36.0241C133.746 38.586 133.692 41.1462 133.794 43.7033C132.224 43.6313 130.337 43.7033 128.741 43.7129C128.239 43.3448 128.805 43.3544 128.402 42.6616C127.374 42.8184 126.808 43.5881 125.747 43.8489C124.341 44.1961 122.805 43.6281 121.585 42.9704C120.688 42.0471 120.051 41.2486 120.066 39.9125C120.123 34.9856 124.898 35.4609 128.225 35.4977L128.353 35.2785C127.956 32.0718 124.17 33.5567 122.4 34.6208C121.916 33.5535 121.169 32.3534 120.566 31.3229C122.64 30.054 123.722 29.7275 126.134 29.4219Z" fill="#FEFEFE"/>
<path d="M126.238 38.0258C127.295 37.9602 128.316 37.6866 128.532 39.0515C128.329 39.9812 127.997 40.2932 127.239 40.8612C125.122 41.0117 124.65 39.4531 126.238 38.0258Z" fill="#161616"/>
<path d="M175.893 29.4009C181.971 29.0153 184.297 32.2108 184.144 38.0034C182.598 37.9729 176.459 37.6241 175.625 38.3138L175.655 38.621C177.382 40.4868 179.075 39.7043 180.936 38.6402L182.593 40.2084L183.597 41.3765C180.872 43.8839 177.131 44.876 173.729 43.095C172.062 42.2181 170.833 40.6916 170.328 38.877C168.996 34.2494 171.29 30.5194 175.893 29.4009Z" fill="#FEFEFE"/>
<path d="M176.662 33.0381C177.671 33.0557 179.454 33.6045 178.922 34.8879C178.447 35.2159 177.985 35.0879 177.379 35.0431C176.514 35.0831 175.802 35.3279 175.359 34.5054C175.498 33.8254 176.12 33.4253 176.662 33.0381Z" fill="#161616"/>
<path d="M83.0597 29.3931C89.0177 28.9451 91.0416 32.5118 90.967 37.8931C89.3596 37.8659 83.8342 37.8275 82.3681 38.0531C82.1273 38.7396 83.4044 39.5333 83.9939 39.6837C85.4485 40.0533 86.5762 39.3205 87.7499 38.5972L89.9381 40.7094C90.3795 41.1623 90.3197 40.9222 90.3218 41.4055C89.7294 42.3816 87.692 43.3977 86.604 43.6473C84.4483 44.1449 82.0731 44.0425 80.1538 42.8616C78.5442 41.8503 77.4153 40.2278 77.0271 38.3668C76.0922 33.8384 78.5848 30.2636 83.0597 29.3931Z" fill="#FEFEFE"/>
<path d="M83.6788 33.0093C84.6814 33.0829 86.1731 33.6285 85.7282 34.8766C85.1517 35.2143 85.0402 35.0783 84.2419 35.0655C83.4007 35.1151 82.8067 35.3311 82.2661 34.651C82.4258 33.779 82.9409 33.5245 83.6788 33.0093Z" fill="#161616"/>
<path d="M185.289 29.5626C189.395 29.6058 193.718 29.4826 197.797 29.6218L197.807 33.1805C196.288 34.5631 193.472 37.7954 191.971 39.4067C193.971 39.2339 195.99 39.2851 198 39.2931L197.979 43.7623C193.83 43.5847 189.201 43.6775 185.023 43.7127C185.015 42.551 185.022 41.3909 185.043 40.2308C185.936 38.9491 189.368 35.4207 190.671 33.9982C188.925 33.9374 187.035 33.9918 185.278 34.0094C185.274 32.5277 185.278 31.0443 185.289 29.5626Z" fill="#FEFEFE"/>
<path d="M102.271 29.2122C102.441 29.2346 102.321 29.209 102.606 29.3722C102.772 30.5195 102.682 33.1101 102.673 34.3726C96.9711 34.7871 98.3125 39.2307 98.3461 43.6999C96.5873 43.5815 94.7981 43.7015 92.9862 43.5799C92.6802 43.2583 92.7944 43.1191 92.7793 42.5222C92.7606 38.2034 92.7717 33.883 92.8126 29.5642C94.719 29.593 96.4242 29.6138 98.3301 29.529L98.3541 31.8668C99.6524 30.1403 100.153 29.6474 102.271 29.2122Z" fill="#FEFEFE"/>
<path d="M90.6767 5.34253L91.2117 5.36365C91.6241 6.01092 91.3564 9.55109 91.3196 10.6125C85.6972 10.6693 86.9786 15.4203 87.0675 19.6417C85.9196 19.6321 82.1991 19.8529 81.5634 19.3328L81.5367 18.68C81.6077 14.4421 81.5237 10.0022 81.5205 5.74145C83.3657 5.70753 85.2111 5.70048 87.0563 5.72049L87.2366 8.09672C88.3549 6.38567 88.785 6.04532 90.6767 5.34253Z" fill="#FEFEFE"/>
<path d="M17.5157 18.72L25.243 18.6736C25.2541 19.7361 25.4128 25.2294 25.093 25.9447L24.6824 26.0263L16.8018 26.0071C16.7788 24.743 16.5628 19.6321 16.9572 18.8208L17.5157 18.72Z" fill="#1282A2"/>
</svg>
